<?xml version="1.0" encoding="UTF-8"?>
<svg id="Capa_2" data-name="Capa 2" xmlns="http://www.w3.org/2000/svg" viewBox="0 0 879.58 189.25">
  <defs>
    <style>
      .cls-1 {
        fill: #ff7900;
        fill-rule: evenodd;
      }
    </style>
  </defs>
  <g id="Logotipo">
    <path id="Logotipo_Muove_naranja" data-name="Logotipo Muove naranja" class="cls-1" d="M260.2,118.76v61.01c0,5.23-4.25,9.48-9.48,9.48h-27.6c-5.24,0-9.48-4.25-9.48-9.48v-61.01c0-37.9-29.05-69.01-66.08-72.3-.47-.05-.95-.09-1.43-.11-1.31.22-2.31,1.38-2.31,2.76,0,.47.12.89.31,1.29.01,0,.01.01.01.01.15.2.28.41.43.61,13.32,19.24,21.1,42.57,21.1,67.74v61.01c0,5.23-4.24,9.48-9.48,9.48h-27.59c-5.24,0-9.48-4.25-9.48-9.48v-61.01c0-21.82-9.64-41.4-24.87-54.7-10.19-8.89-22.88-14.99-36.88-17.1h-.01c-1.62-.23-3.25-.43-4.9-.56-3.4.74-5.94,3.79-5.94,7.4v125.96c0,5.23-4.24,9.48-9.48,9.48H9.48c-5.24,0-9.48-4.25-9.48-9.48V55.63c0-5.24,4.24-9.48,9.48-9.48h30.39c3.76-.45,6.67-3.64,6.67-7.53V9.48C46.54,3.92,51.33-.44,56.88.05c13.19,1.12,25.77,4.41,37.38,9.5,16.01,7.01,30.2,17.44,41.63,30.38.03.03.04.04.05.07.12.12.23.26.34.38.01.03.04.03.04.04.5.46,1.18.76,1.91.76,1.54,0,2.82-1.27,2.82-2.82V9.48c0-5.6,4.58-9.92,10.15-9.45,61.05,5.14,109,56.33,109,118.72ZM639.75,187.22c7.42,0,13.99-4.46,16.73-11.35l57.13-143.84c1.43-3.59.98-7.64-1.19-10.83-2.17-3.2-5.77-5.1-9.63-5.1h-18.51c-4.83,0-9.09,2.91-10.84,7.42l-38.47,98.93-38.01-97.08c-2.2-5.63-7.53-9.26-13.57-9.26h-18.66c-3.8,0-7.34,1.88-9.48,5.03-2.13,3.15-2.56,7.13-1.15,10.67l57.29,143.52c2.89,7.24,9.8,11.92,17.59,11.92h10.77ZM873.74,104.84c-2.28-1.81-5.11-2.8-8-3.12l-10.23-1.15c-5.1-.58-9.95,1.49-13.15,5.16-1.57,1.82-2.73,4.03-3.32,6.49-5.9,24.99-28.5,41.04-53.72,38.19-4.83-.54-9.53-1.8-14.03-3.75-.95-.41-1.9-.85-2.83-1.32-.16-.07-.26-.17-.36-.26-12.49-6.8-21.63-18.67-24.96-32.55-.05-.09-.09-.2-.13-.35-.15-.63-.27-1.28-.37-1.9-.23-1.17-.41-2.32-.52-3.51-.13-1.07-.23-2.14-.28-3.2-.16-2.8-.06-5.62.23-8.45.1-.88.22-1.73.35-2.57,4.15-26.72,27.51-45.04,54.16-42.03.19.02.41.05.6.1,5.89.72,11.46,2.43,16.5,5.03.13.07.53.25.6.87.02.31-.03.75-.46,1.09l-4.28,3.41-55.66,44.55c-2.77,2.22-3.83,5.96-2.63,9.31,3.13,8.7,9,16.19,16.69,21.31,3,1.99,6.95,1.82,9.77-.42l56.17-44.65,6.5-5.16,21.98-17.48c6.41-5.11,7.64-14.29,2.77-20.87-14.35-19.43-37.42-32.24-63.33-35.16-24.43-2.75-48.24,3.85-67.08,18.57-18.84,14.75-30.7,36.09-33.41,60.16-5.52,48.99,29.21,91.76,79.08,97.38,22.7,2.56,45.17-3,63.33-15.65,18.07-12.58,30.66-31.34,35.47-52.81,1.26-5.57-.76-11.5-5.47-15.24ZM729.08,174.7l-15.89,12.67c-3.15,2.51-7.69,2.44-10.67-.26-6.17-5.6-11.49-12.02-15.79-19.07-2.15-3.52-1.24-8.11,1.99-10.68l15.72-12.53c6.01,11.55,14.4,21.72,24.65,29.88ZM565.57,100.5c0,50.6-38.83,88.74-90.32,88.74-20.8,0-39.5-6.27-54.41-17.07-3.67-2.68-4.47-7.71-1.91-11.43,4.42-6.35,7.93-13.34,10.5-20.91,1.91-5.66,9.11-7.24,13.51-3.18,8.34,7.73,19.61,12.32,32.31,12.32,23.67,0,42.51-15.38,46.9-38.31,3.37-17.54.3-33.17-8.67-44-8.09-9.8-20.19-14.97-34.97-14.97-3.87,0-7.9.36-11.99,1.08-13.81,2.43-25.11,10.55-31.87,21.93-4.45,7.43-6.93,16.27-6.93,25.8v6.05c0,21.93-6.33,40.99-18.45,55.52-1.22,1.49-2.51,2.93-3.87,4.34-14.61,14.94-34.8,22.84-58.39,22.84s-43.56-7.9-58.14-22.87c-14.58-14.97-22.29-35.66-22.29-59.82V26.73c0-5.88,4.67-10.63,10.41-10.63h21.41c5.8,0,10.5,4.81,10.5,10.69v79.77c0,25.91,14.97,42.62,38.12,42.62s38.39-16.71,38.39-42.62v-10.99c1.16-22.4,10.19-42.87,25.71-58.14,4.94-4.89,10.47-9.09,16.43-12.59,2.04-1.22,4.14-2.35,6.3-3.37,12.51-6.13,26.6-9.36,41.4-9.36,51.48,0,90.32,38,90.32,88.41Z"/>
  </g>
</svg>